<mxfile host="app.diagrams.net" agent="Mozilla/5.0 (Windows NT 10.0; Win64; x64) AppleWebKit/537.36 (KHTML, like Gecko) Chrome/134.0.0.0 Safari/537.36" version="26.2.6">
  <diagram name="第 1 页" id="UJfofHyAi-vfrjt4BgnB">
    <mxGraphModel dx="1182" dy="-539" grid="1" gridSize="10" guides="1" tooltips="1" connect="1" arrows="1" fold="1" page="1" pageScale="1" pageWidth="827" pageHeight="1169" math="0" shadow="0">
      <root>
        <mxCell id="0" />
        <mxCell id="1" parent="0" />
        <mxCell id="khgx04jsNpT15c4Wu7S9-180" value="" style="rounded=0;whiteSpace=wrap;html=1;dashed=1;dashPattern=8 8;strokeColor=#007FFF;" parent="1" vertex="1">
          <mxGeometry x="140" y="1448.71" width="470" height="330" as="geometry" />
        </mxCell>
        <mxCell id="khgx04jsNpT15c4Wu7S9-84" value="DQN" style="text;html=1;align=center;verticalAlign=middle;whiteSpace=wrap;rounded=0;fontFamily=Times New Roman;fontSize=11;" parent="1" vertex="1">
          <mxGeometry x="130" y="1450" width="60" height="30" as="geometry" />
        </mxCell>
        <mxCell id="khgx04jsNpT15c4Wu7S9-128" value="" style="group;fontFamily=Times New Roman;fontStyle=2" parent="1" vertex="1" connectable="0">
          <mxGeometry x="234.75" y="1500" width="80" height="186.25" as="geometry" />
        </mxCell>
        <mxCell id="khgx04jsNpT15c4Wu7S9-120" value="" style="rounded=1;whiteSpace=wrap;html=1;fontFamily=Times New Roman;fontStyle=2;fillColor=#FFF3E9;" parent="khgx04jsNpT15c4Wu7S9-128" vertex="1">
          <mxGeometry width="80" height="186.25000000000003" as="geometry" />
        </mxCell>
        <mxCell id="khgx04jsNpT15c4Wu7S9-121" value="S1" style="ellipse;whiteSpace=wrap;html=1;aspect=fixed;fontFamily=Times New Roman;fontStyle=2;fillColor=#ffe6cc;strokeColor=#d79b00;" parent="khgx04jsNpT15c4Wu7S9-128" vertex="1">
          <mxGeometry x="11.75" y="16.038194444444446" width="34" height="34" as="geometry" />
        </mxCell>
        <mxCell id="khgx04jsNpT15c4Wu7S9-122" value="S2" style="ellipse;whiteSpace=wrap;html=1;aspect=fixed;fontFamily=Times New Roman;fontStyle=2;fillColor=#ffe6cc;strokeColor=#d79b00;" parent="khgx04jsNpT15c4Wu7S9-128" vertex="1">
          <mxGeometry x="35.75" y="26.385416666666668" width="34" height="34" as="geometry" />
        </mxCell>
        <mxCell id="khgx04jsNpT15c4Wu7S9-123" value="S3" style="ellipse;whiteSpace=wrap;html=1;aspect=fixed;fontFamily=Times New Roman;fontStyle=2;fillColor=#ffe6cc;strokeColor=#d79b00;" parent="khgx04jsNpT15c4Wu7S9-128" vertex="1">
          <mxGeometry x="11.75" y="70.87847222222223" width="34" height="34" as="geometry" />
        </mxCell>
        <mxCell id="khgx04jsNpT15c4Wu7S9-124" value="S4" style="ellipse;whiteSpace=wrap;html=1;aspect=fixed;fontFamily=Times New Roman;fontStyle=2;fillColor=#ffe6cc;strokeColor=#d79b00;" parent="khgx04jsNpT15c4Wu7S9-128" vertex="1">
          <mxGeometry x="35.75" y="85.10590277777779" width="34" height="34" as="geometry" />
        </mxCell>
        <mxCell id="khgx04jsNpT15c4Wu7S9-126" value="S5" style="ellipse;whiteSpace=wrap;html=1;aspect=fixed;fontFamily=Times New Roman;fontStyle=2;fillColor=#ffe6cc;strokeColor=#d79b00;" parent="khgx04jsNpT15c4Wu7S9-128" vertex="1">
          <mxGeometry x="11.75" y="129.8576388888889" width="34" height="34" as="geometry" />
        </mxCell>
        <mxCell id="khgx04jsNpT15c4Wu7S9-127" value="S6" style="ellipse;whiteSpace=wrap;html=1;aspect=fixed;fontFamily=Times New Roman;fontStyle=2;fillColor=#ffe6cc;strokeColor=#d79b00;" parent="khgx04jsNpT15c4Wu7S9-128" vertex="1">
          <mxGeometry x="35.75" y="140.20486111111111" width="34" height="34" as="geometry" />
        </mxCell>
        <mxCell id="khgx04jsNpT15c4Wu7S9-135" value="" style="group;fontStyle=2" parent="1" vertex="1" connectable="0">
          <mxGeometry x="515.25" y="1500" width="75.5" height="185" as="geometry" />
        </mxCell>
        <mxCell id="khgx04jsNpT15c4Wu7S9-119" value="" style="rounded=1;whiteSpace=wrap;html=1;fontFamily=Times New Roman;fontStyle=2;fillColor=#FFEBEC;" parent="khgx04jsNpT15c4Wu7S9-135" vertex="1">
          <mxGeometry width="75.5" height="184.99999999999997" as="geometry" />
        </mxCell>
        <mxCell id="khgx04jsNpT15c4Wu7S9-132" value="P&lt;sub&gt;m9&lt;/sub&gt;" style="ellipse;whiteSpace=wrap;html=1;aspect=fixed;fontFamily=Times New Roman;fontStyle=2;fillColor=#f8cecc;strokeColor=#b85450;" parent="khgx04jsNpT15c4Wu7S9-135" vertex="1">
          <mxGeometry x="5.799999999999999" y="125.15" width="34.85" height="34.85" as="geometry" />
        </mxCell>
        <mxCell id="khgx04jsNpT15c4Wu7S9-134" value="" style="endArrow=none;dashed=1;html=1;dashPattern=1 3;strokeWidth=2;rounded=0;fontFamily=Times New Roman;fontStyle=2" parent="khgx04jsNpT15c4Wu7S9-135" edge="1">
          <mxGeometry width="50" height="50" relative="1" as="geometry">
            <mxPoint x="40.17836257309941" y="69.375" as="sourcePoint" />
            <mxPoint x="40.17836257309941" y="112.90441176470587" as="targetPoint" />
          </mxGeometry>
        </mxCell>
        <mxCell id="khgx04jsNpT15c4Wu7S9-187" value="P&lt;sub&gt;m10&lt;/sub&gt;" style="ellipse;whiteSpace=wrap;html=1;aspect=fixed;fontFamily=Times New Roman;fontStyle=2;fillColor=#f8cecc;strokeColor=#b85450;" parent="khgx04jsNpT15c4Wu7S9-135" vertex="1">
          <mxGeometry x="35.50000000000001" y="135" width="34.85" height="34.85" as="geometry" />
        </mxCell>
        <mxCell id="khgx04jsNpT15c4Wu7S9-186" value="P&lt;sub&gt;m1&lt;/sub&gt;" style="ellipse;whiteSpace=wrap;html=1;aspect=fixed;fontFamily=Times New Roman;fontStyle=2;fillColor=#f8cecc;strokeColor=#b85450;" parent="khgx04jsNpT15c4Wu7S9-135" vertex="1">
          <mxGeometry x="5.800000000000001" y="15" width="34.85" height="34.85" as="geometry" />
        </mxCell>
        <mxCell id="khgx04jsNpT15c4Wu7S9-188" value="P&lt;sub&gt;m2&lt;/sub&gt;" style="ellipse;whiteSpace=wrap;html=1;aspect=fixed;fontFamily=Times New Roman;fontStyle=2;fillColor=#f8cecc;strokeColor=#b85450;" parent="khgx04jsNpT15c4Wu7S9-135" vertex="1">
          <mxGeometry x="35.49999999999998" y="25" width="34.85" height="34.85" as="geometry" />
        </mxCell>
        <mxCell id="khgx04jsNpT15c4Wu7S9-162" style="edgeStyle=orthogonalEdgeStyle;rounded=0;orthogonalLoop=1;jettySize=auto;html=1;exitX=0;exitY=0.5;exitDx=0;exitDy=0;fontFamily=Times New Roman;fontSize=11;" parent="1" source="khgx04jsNpT15c4Wu7S9-163" target="khgx04jsNpT15c4Wu7S9-165" edge="1">
          <mxGeometry relative="1" as="geometry" />
        </mxCell>
        <mxCell id="khgx04jsNpT15c4Wu7S9-163" value="Calculate rewards" style="rounded=0;whiteSpace=wrap;html=1;fontFamily=Times New Roman;fillColor=#b1ddf0;strokeColor=#10739e;fontSize=11;" parent="1" vertex="1">
          <mxGeometry x="505.75" y="1720" width="85" height="42" as="geometry" />
        </mxCell>
        <mxCell id="khgx04jsNpT15c4Wu7S9-164" style="edgeStyle=orthogonalEdgeStyle;rounded=0;orthogonalLoop=1;jettySize=auto;html=1;exitX=0;exitY=0.5;exitDx=0;exitDy=0;fontFamily=Times New Roman;fontSize=11;" parent="1" source="khgx04jsNpT15c4Wu7S9-165" target="khgx04jsNpT15c4Wu7S9-166" edge="1">
          <mxGeometry relative="1" as="geometry" />
        </mxCell>
        <mxCell id="khgx04jsNpT15c4Wu7S9-165" value="Storing experience into DQN memory bank" style="rounded=0;whiteSpace=wrap;html=1;fontFamily=Times New Roman;fillColor=#b1ddf0;strokeColor=#10739e;fontSize=11;" parent="1" vertex="1">
          <mxGeometry x="357.5" y="1720" width="112" height="42" as="geometry" />
        </mxCell>
        <mxCell id="VwwPdVkdePOhtC4E7bin-6" style="edgeStyle=orthogonalEdgeStyle;rounded=0;orthogonalLoop=1;jettySize=auto;html=1;exitX=0;exitY=0.5;exitDx=0;exitDy=0;entryX=0;entryY=0.5;entryDx=0;entryDy=0;" edge="1" parent="1" source="khgx04jsNpT15c4Wu7S9-166" target="khgx04jsNpT15c4Wu7S9-168">
          <mxGeometry relative="1" as="geometry">
            <Array as="points">
              <mxPoint x="150" y="1741" />
              <mxPoint x="150" y="1593" />
            </Array>
          </mxGeometry>
        </mxCell>
        <mxCell id="khgx04jsNpT15c4Wu7S9-166" value="Training DQN" style="rounded=0;whiteSpace=wrap;html=1;fontFamily=Times New Roman;fillColor=#b1ddf0;strokeColor=#10739e;fontSize=11;" parent="1" vertex="1">
          <mxGeometry x="225.75" y="1720" width="98" height="42" as="geometry" />
        </mxCell>
        <mxCell id="khgx04jsNpT15c4Wu7S9-169" style="edgeStyle=orthogonalEdgeStyle;rounded=0;orthogonalLoop=1;jettySize=auto;html=1;exitX=0.5;exitY=0;exitDx=0;exitDy=0;entryX=0;entryY=0.5;entryDx=0;entryDy=0;" parent="1" source="khgx04jsNpT15c4Wu7S9-168" target="khgx04jsNpT15c4Wu7S9-183" edge="1">
          <mxGeometry relative="1" as="geometry">
            <mxPoint x="409.99999999999545" y="1445" as="targetPoint" />
          </mxGeometry>
        </mxCell>
        <mxCell id="khgx04jsNpT15c4Wu7S9-178" value="Yes" style="edgeLabel;html=1;align=center;verticalAlign=middle;resizable=0;points=[];fontFamily=Times New Roman;" parent="khgx04jsNpT15c4Wu7S9-169" vertex="1" connectable="0">
          <mxGeometry x="-0.871" y="3" relative="1" as="geometry">
            <mxPoint as="offset" />
          </mxGeometry>
        </mxCell>
        <mxCell id="VwwPdVkdePOhtC4E7bin-4" style="edgeStyle=orthogonalEdgeStyle;rounded=0;orthogonalLoop=1;jettySize=auto;html=1;exitX=1;exitY=0.5;exitDx=0;exitDy=0;entryX=0;entryY=0.5;entryDx=0;entryDy=0;" edge="1" parent="1" source="khgx04jsNpT15c4Wu7S9-168" target="khgx04jsNpT15c4Wu7S9-120">
          <mxGeometry relative="1" as="geometry" />
        </mxCell>
        <mxCell id="khgx04jsNpT15c4Wu7S9-168" value="10%" style="rhombus;whiteSpace=wrap;html=1;fontFamily=Times New Roman;fillColor=#b1ddf0;strokeColor=#10739e;fontSize=11;" parent="1" vertex="1">
          <mxGeometry x="170" y="1574.6899999999998" width="55" height="36.88" as="geometry" />
        </mxCell>
        <mxCell id="khgx04jsNpT15c4Wu7S9-183" value="&lt;span style=&quot;font-family: &amp;quot;Times New Roman&amp;quot;; font-style: italic;&quot;&gt;P&lt;/span&gt;&lt;sub style=&quot;font-family: &amp;quot;Times New Roman&amp;quot;; font-style: italic;&quot;&gt;m&lt;/sub&gt;&lt;span style=&quot;font-family: &amp;quot;Times New Roman&amp;quot;; font-style: italic; font-size: 10px;&quot;&gt;&amp;nbsp;= 0.2&lt;/span&gt;" style="ellipse;whiteSpace=wrap;html=1;fillColor=#f8cecc;strokeColor=#b85450;container=0;" parent="1" vertex="1">
          <mxGeometry x="405" y="1462.5" width="50" height="30" as="geometry" />
        </mxCell>
        <mxCell id="khgx04jsNpT15c4Wu7S9-184" value="" style="group" parent="1" vertex="1" connectable="0">
          <mxGeometry x="610" y="1450" width="113" height="330" as="geometry" />
        </mxCell>
        <mxCell id="khgx04jsNpT15c4Wu7S9-150" value="" style="rounded=0;whiteSpace=wrap;html=1;dashed=1;dashPattern=8 8;fontFamily=Times New Roman;strokeColor=#00CC00;fontSize=11;" parent="khgx04jsNpT15c4Wu7S9-184" vertex="1">
          <mxGeometry x="13" width="100" height="330" as="geometry" />
        </mxCell>
        <mxCell id="khgx04jsNpT15c4Wu7S9-151" value="GA" style="text;html=1;align=center;verticalAlign=middle;whiteSpace=wrap;rounded=0;fontFamily=Times New Roman;fontSize=11;" parent="khgx04jsNpT15c4Wu7S9-184" vertex="1">
          <mxGeometry width="60" height="30" as="geometry" />
        </mxCell>
        <mxCell id="khgx04jsNpT15c4Wu7S9-152" style="edgeStyle=orthogonalEdgeStyle;rounded=0;orthogonalLoop=1;jettySize=auto;html=1;exitX=0.5;exitY=1;exitDx=0;exitDy=0;entryX=0.5;entryY=0;entryDx=0;entryDy=0;fontFamily=Times New Roman;fontSize=11;" parent="khgx04jsNpT15c4Wu7S9-184" source="khgx04jsNpT15c4Wu7S9-153" target="khgx04jsNpT15c4Wu7S9-157" edge="1">
          <mxGeometry relative="1" as="geometry" />
        </mxCell>
        <mxCell id="khgx04jsNpT15c4Wu7S9-153" value="cross" style="rounded=0;whiteSpace=wrap;html=1;fontFamily=Times New Roman;fillColor=#d5e8d4;strokeColor=#82b366;fontSize=11;" parent="khgx04jsNpT15c4Wu7S9-184" vertex="1">
          <mxGeometry x="28" y="90" width="70" height="35" as="geometry" />
        </mxCell>
        <mxCell id="khgx04jsNpT15c4Wu7S9-154" style="edgeStyle=orthogonalEdgeStyle;rounded=0;orthogonalLoop=1;jettySize=auto;html=1;exitX=0.5;exitY=1;exitDx=0;exitDy=0;fontFamily=Times New Roman;fontSize=11;" parent="khgx04jsNpT15c4Wu7S9-184" source="khgx04jsNpT15c4Wu7S9-155" target="khgx04jsNpT15c4Wu7S9-153" edge="1">
          <mxGeometry relative="1" as="geometry" />
        </mxCell>
        <mxCell id="khgx04jsNpT15c4Wu7S9-155" value="select" style="rounded=0;whiteSpace=wrap;html=1;fontFamily=Times New Roman;fillColor=#d5e8d4;strokeColor=#82b366;fontSize=11;" parent="khgx04jsNpT15c4Wu7S9-184" vertex="1">
          <mxGeometry x="28" y="30" width="70" height="35" as="geometry" />
        </mxCell>
        <mxCell id="khgx04jsNpT15c4Wu7S9-156" style="edgeStyle=orthogonalEdgeStyle;rounded=0;orthogonalLoop=1;jettySize=auto;html=1;exitX=0.5;exitY=1;exitDx=0;exitDy=0;entryX=0.5;entryY=0;entryDx=0;entryDy=0;fontFamily=Times New Roman;fontSize=11;" parent="khgx04jsNpT15c4Wu7S9-184" source="khgx04jsNpT15c4Wu7S9-157" target="khgx04jsNpT15c4Wu7S9-159" edge="1">
          <mxGeometry relative="1" as="geometry" />
        </mxCell>
        <mxCell id="khgx04jsNpT15c4Wu7S9-157" value="mutaion" style="rounded=0;whiteSpace=wrap;html=1;fontFamily=Times New Roman;fillColor=#d5e8d4;strokeColor=#82b366;fontSize=11;" parent="khgx04jsNpT15c4Wu7S9-184" vertex="1">
          <mxGeometry x="28" y="157.5" width="70" height="35" as="geometry" />
        </mxCell>
        <mxCell id="khgx04jsNpT15c4Wu7S9-158" style="edgeStyle=orthogonalEdgeStyle;rounded=0;orthogonalLoop=1;jettySize=auto;html=1;exitX=0.5;exitY=1;exitDx=0;exitDy=0;entryX=0.5;entryY=0;entryDx=0;entryDy=0;fontFamily=Times New Roman;fontSize=11;" parent="khgx04jsNpT15c4Wu7S9-184" source="khgx04jsNpT15c4Wu7S9-159" target="khgx04jsNpT15c4Wu7S9-161" edge="1">
          <mxGeometry relative="1" as="geometry" />
        </mxCell>
        <mxCell id="khgx04jsNpT15c4Wu7S9-159" value="VNS" style="rounded=0;whiteSpace=wrap;html=1;fontFamily=Times New Roman;fillColor=#d5e8d4;strokeColor=#82b366;fontSize=11;" parent="khgx04jsNpT15c4Wu7S9-184" vertex="1">
          <mxGeometry x="28" y="220" width="70" height="27.5" as="geometry" />
        </mxCell>
        <mxCell id="khgx04jsNpT15c4Wu7S9-161" value="New&amp;nbsp;population" style="rounded=0;whiteSpace=wrap;html=1;fontFamily=Times New Roman;fillColor=#d5e8d4;strokeColor=#82b366;fontSize=11;" parent="khgx04jsNpT15c4Wu7S9-184" vertex="1">
          <mxGeometry x="25.5" y="272.25" width="75" height="37.5" as="geometry" />
        </mxCell>
        <mxCell id="khgx04jsNpT15c4Wu7S9-170" style="edgeStyle=orthogonalEdgeStyle;rounded=0;orthogonalLoop=1;jettySize=auto;html=1;exitX=1;exitY=0.5;exitDx=0;exitDy=0;" parent="1" source="khgx04jsNpT15c4Wu7S9-183" target="khgx04jsNpT15c4Wu7S9-157" edge="1">
          <mxGeometry relative="1" as="geometry">
            <mxPoint x="460.0000000000048" y="1445" as="sourcePoint" />
            <Array as="points">
              <mxPoint x="600" y="1478" />
              <mxPoint x="600" y="1625" />
            </Array>
          </mxGeometry>
        </mxCell>
        <mxCell id="khgx04jsNpT15c4Wu7S9-160" style="edgeStyle=orthogonalEdgeStyle;rounded=0;orthogonalLoop=1;jettySize=auto;html=1;exitX=0;exitY=0.5;exitDx=0;exitDy=0;entryX=1;entryY=0.5;entryDx=0;entryDy=0;fontFamily=Times New Roman;fontSize=11;" parent="1" source="khgx04jsNpT15c4Wu7S9-161" target="khgx04jsNpT15c4Wu7S9-163" edge="1">
          <mxGeometry relative="1" as="geometry">
            <mxPoint x="647" y="1778" as="targetPoint" />
          </mxGeometry>
        </mxCell>
        <mxCell id="khgx04jsNpT15c4Wu7S9-313" value="" style="group" parent="1" vertex="1" connectable="0">
          <mxGeometry x="310" y="1520" width="220" height="187.42" as="geometry" />
        </mxCell>
        <mxCell id="khgx04jsNpT15c4Wu7S9-81" value="Input Layer" style="text;html=1;align=center;verticalAlign=middle;resizable=0;points=[];autosize=1;strokeColor=none;fillColor=none;fontFamily=Times New Roman;fontSize=11;container=0;" parent="khgx04jsNpT15c4Wu7S9-313" vertex="1">
          <mxGeometry x="-9.565217391304348" y="160.3125972006221" width="80" height="30" as="geometry" />
        </mxCell>
        <mxCell id="khgx04jsNpT15c4Wu7S9-82" value="Hidden Layer" style="text;html=1;align=center;verticalAlign=middle;resizable=0;points=[];autosize=1;strokeColor=none;fillColor=none;fontFamily=Times New Roman;fontSize=11;container=0;" parent="khgx04jsNpT15c4Wu7S9-313" vertex="1">
          <mxGeometry x="57.39154148126246" y="160.3125972006221" width="80" height="30" as="geometry" />
        </mxCell>
        <mxCell id="khgx04jsNpT15c4Wu7S9-16" style="rounded=0;orthogonalLoop=1;jettySize=auto;html=1;exitX=1;exitY=0.5;exitDx=0;exitDy=0;entryX=0;entryY=0.5;entryDx=0;entryDy=0;fontFamily=Times New Roman;fontSize=11;" parent="khgx04jsNpT15c4Wu7S9-313" source="khgx04jsNpT15c4Wu7S9-20" target="khgx04jsNpT15c4Wu7S9-50" edge="1">
          <mxGeometry relative="1" as="geometry" />
        </mxCell>
        <mxCell id="khgx04jsNpT15c4Wu7S9-17" style="rounded=0;orthogonalLoop=1;jettySize=auto;html=1;exitX=1;exitY=0.5;exitDx=0;exitDy=0;entryX=0;entryY=0.5;entryDx=0;entryDy=0;fontFamily=Times New Roman;fontSize=11;" parent="khgx04jsNpT15c4Wu7S9-313" source="khgx04jsNpT15c4Wu7S9-20" target="khgx04jsNpT15c4Wu7S9-45" edge="1">
          <mxGeometry relative="1" as="geometry" />
        </mxCell>
        <mxCell id="khgx04jsNpT15c4Wu7S9-18" style="rounded=0;orthogonalLoop=1;jettySize=auto;html=1;exitX=1;exitY=0.5;exitDx=0;exitDy=0;entryX=0;entryY=0.5;entryDx=0;entryDy=0;fontFamily=Times New Roman;fontSize=11;" parent="khgx04jsNpT15c4Wu7S9-313" source="khgx04jsNpT15c4Wu7S9-20" target="khgx04jsNpT15c4Wu7S9-40" edge="1">
          <mxGeometry relative="1" as="geometry" />
        </mxCell>
        <mxCell id="khgx04jsNpT15c4Wu7S9-19" style="rounded=0;orthogonalLoop=1;jettySize=auto;html=1;exitX=1;exitY=0.5;exitDx=0;exitDy=0;entryX=0;entryY=0.5;entryDx=0;entryDy=0;fontFamily=Times New Roman;fontSize=11;" parent="khgx04jsNpT15c4Wu7S9-313" source="khgx04jsNpT15c4Wu7S9-20" target="khgx04jsNpT15c4Wu7S9-35" edge="1">
          <mxGeometry relative="1" as="geometry" />
        </mxCell>
        <mxCell id="khgx04jsNpT15c4Wu7S9-20" value="" style="ellipse;whiteSpace=wrap;html=1;aspect=fixed;fontSize=11;strokeWidth=1;fontFamily=Times New Roman;fillColor=#ffe6cc;strokeColor=#d79b00;container=0;" parent="khgx04jsNpT15c4Wu7S9-313" vertex="1">
          <mxGeometry x="8.938442220301987" y="26.465116046310726" width="18.1385509639291" height="18.1385509639291" as="geometry" />
        </mxCell>
        <mxCell id="khgx04jsNpT15c4Wu7S9-21" style="rounded=0;orthogonalLoop=1;jettySize=auto;html=1;exitX=1;exitY=0.5;exitDx=0;exitDy=0;entryX=0;entryY=0.5;entryDx=0;entryDy=0;fontFamily=Times New Roman;fontSize=11;" parent="khgx04jsNpT15c4Wu7S9-313" source="khgx04jsNpT15c4Wu7S9-25" target="khgx04jsNpT15c4Wu7S9-50" edge="1">
          <mxGeometry relative="1" as="geometry" />
        </mxCell>
        <mxCell id="khgx04jsNpT15c4Wu7S9-22" style="rounded=0;orthogonalLoop=1;jettySize=auto;html=1;exitX=1;exitY=0.5;exitDx=0;exitDy=0;entryX=0;entryY=0.5;entryDx=0;entryDy=0;fontFamily=Times New Roman;fontSize=11;" parent="khgx04jsNpT15c4Wu7S9-313" source="khgx04jsNpT15c4Wu7S9-25" target="khgx04jsNpT15c4Wu7S9-45" edge="1">
          <mxGeometry relative="1" as="geometry" />
        </mxCell>
        <mxCell id="khgx04jsNpT15c4Wu7S9-23" style="rounded=0;orthogonalLoop=1;jettySize=auto;html=1;exitX=1;exitY=0.5;exitDx=0;exitDy=0;entryX=0;entryY=0.5;entryDx=0;entryDy=0;fontFamily=Times New Roman;fontSize=11;" parent="khgx04jsNpT15c4Wu7S9-313" source="khgx04jsNpT15c4Wu7S9-25" target="khgx04jsNpT15c4Wu7S9-40" edge="1">
          <mxGeometry relative="1" as="geometry" />
        </mxCell>
        <mxCell id="khgx04jsNpT15c4Wu7S9-24" style="rounded=0;orthogonalLoop=1;jettySize=auto;html=1;exitX=1;exitY=0.5;exitDx=0;exitDy=0;entryX=0;entryY=0.5;entryDx=0;entryDy=0;fontFamily=Times New Roman;fontSize=11;" parent="khgx04jsNpT15c4Wu7S9-313" source="khgx04jsNpT15c4Wu7S9-25" target="khgx04jsNpT15c4Wu7S9-35" edge="1">
          <mxGeometry relative="1" as="geometry" />
        </mxCell>
        <mxCell id="khgx04jsNpT15c4Wu7S9-25" value="" style="ellipse;whiteSpace=wrap;html=1;aspect=fixed;fontSize=11;strokeWidth=1;fontFamily=Times New Roman;fillColor=#ffe6cc;strokeColor=#d79b00;container=0;" parent="khgx04jsNpT15c4Wu7S9-313" vertex="1">
          <mxGeometry x="8.938442220301987" y="72.06514369448756" width="18.1385509639291" height="18.1385509639291" as="geometry" />
        </mxCell>
        <mxCell id="khgx04jsNpT15c4Wu7S9-26" style="rounded=0;orthogonalLoop=1;jettySize=auto;html=1;exitX=1;exitY=0.5;exitDx=0;exitDy=0;entryX=0;entryY=0.5;entryDx=0;entryDy=0;fontFamily=Times New Roman;fontSize=11;" parent="khgx04jsNpT15c4Wu7S9-313" source="khgx04jsNpT15c4Wu7S9-30" target="khgx04jsNpT15c4Wu7S9-50" edge="1">
          <mxGeometry relative="1" as="geometry" />
        </mxCell>
        <mxCell id="khgx04jsNpT15c4Wu7S9-27" style="rounded=0;orthogonalLoop=1;jettySize=auto;html=1;exitX=1;exitY=0.5;exitDx=0;exitDy=0;entryX=0;entryY=0.5;entryDx=0;entryDy=0;fontFamily=Times New Roman;fontSize=11;" parent="khgx04jsNpT15c4Wu7S9-313" source="khgx04jsNpT15c4Wu7S9-30" target="khgx04jsNpT15c4Wu7S9-45" edge="1">
          <mxGeometry relative="1" as="geometry" />
        </mxCell>
        <mxCell id="khgx04jsNpT15c4Wu7S9-28" style="rounded=0;orthogonalLoop=1;jettySize=auto;html=1;exitX=1;exitY=0.5;exitDx=0;exitDy=0;entryX=0;entryY=0.5;entryDx=0;entryDy=0;fontFamily=Times New Roman;fontSize=11;" parent="khgx04jsNpT15c4Wu7S9-313" source="khgx04jsNpT15c4Wu7S9-30" target="khgx04jsNpT15c4Wu7S9-40" edge="1">
          <mxGeometry relative="1" as="geometry" />
        </mxCell>
        <mxCell id="khgx04jsNpT15c4Wu7S9-29" style="rounded=0;orthogonalLoop=1;jettySize=auto;html=1;exitX=1;exitY=0.5;exitDx=0;exitDy=0;entryX=0;entryY=0.5;entryDx=0;entryDy=0;fontFamily=Times New Roman;fontSize=11;" parent="khgx04jsNpT15c4Wu7S9-313" source="khgx04jsNpT15c4Wu7S9-30" target="khgx04jsNpT15c4Wu7S9-35" edge="1">
          <mxGeometry relative="1" as="geometry" />
        </mxCell>
        <mxCell id="khgx04jsNpT15c4Wu7S9-30" value="" style="ellipse;whiteSpace=wrap;html=1;aspect=fixed;fontSize=11;strokeWidth=1;fontFamily=Times New Roman;fillColor=#ffe6cc;strokeColor=#d79b00;container=0;" parent="khgx04jsNpT15c4Wu7S9-313" vertex="1">
          <mxGeometry x="8.938442220301987" y="117.66517134266458" width="18.1385509639291" height="18.1385509639291" as="geometry" />
        </mxCell>
        <mxCell id="khgx04jsNpT15c4Wu7S9-31" style="rounded=0;orthogonalLoop=1;jettySize=auto;html=1;exitX=1;exitY=0.5;exitDx=0;exitDy=0;entryX=0;entryY=0.5;entryDx=0;entryDy=0;fontFamily=Times New Roman;fontSize=11;" parent="khgx04jsNpT15c4Wu7S9-313" source="khgx04jsNpT15c4Wu7S9-35" target="khgx04jsNpT15c4Wu7S9-58" edge="1">
          <mxGeometry relative="1" as="geometry" />
        </mxCell>
        <mxCell id="khgx04jsNpT15c4Wu7S9-32" style="rounded=0;orthogonalLoop=1;jettySize=auto;html=1;exitX=1;exitY=0.5;exitDx=0;exitDy=0;entryX=0;entryY=0.5;entryDx=0;entryDy=0;fontFamily=Times New Roman;fontSize=11;" parent="khgx04jsNpT15c4Wu7S9-313" source="khgx04jsNpT15c4Wu7S9-35" target="khgx04jsNpT15c4Wu7S9-54" edge="1">
          <mxGeometry relative="1" as="geometry" />
        </mxCell>
        <mxCell id="khgx04jsNpT15c4Wu7S9-33" style="rounded=0;orthogonalLoop=1;jettySize=auto;html=1;exitX=1;exitY=0.5;exitDx=0;exitDy=0;entryX=0;entryY=0.5;entryDx=0;entryDy=0;fontFamily=Times New Roman;fontSize=11;" parent="khgx04jsNpT15c4Wu7S9-313" source="khgx04jsNpT15c4Wu7S9-35" target="khgx04jsNpT15c4Wu7S9-67" edge="1">
          <mxGeometry relative="1" as="geometry" />
        </mxCell>
        <mxCell id="khgx04jsNpT15c4Wu7S9-34" style="rounded=0;orthogonalLoop=1;jettySize=auto;html=1;exitX=1;exitY=0.5;exitDx=0;exitDy=0;entryX=0;entryY=0.5;entryDx=0;entryDy=0;fontFamily=Times New Roman;fontSize=11;" parent="khgx04jsNpT15c4Wu7S9-313" source="khgx04jsNpT15c4Wu7S9-35" target="khgx04jsNpT15c4Wu7S9-63" edge="1">
          <mxGeometry relative="1" as="geometry" />
        </mxCell>
        <mxCell id="khgx04jsNpT15c4Wu7S9-35" value="" style="ellipse;whiteSpace=wrap;html=1;aspect=fixed;fontSize=11;strokeWidth=1;flipV=1;flipH=1;fontFamily=Times New Roman;fillColor=#b0e3e6;strokeColor=#0e8088;container=0;" parent="khgx04jsNpT15c4Wu7S9-313" vertex="1">
          <mxGeometry x="64.561091236924" y="136.79723294280282" width="18.1385509639291" height="18.1385509639291" as="geometry" />
        </mxCell>
        <mxCell id="khgx04jsNpT15c4Wu7S9-36" style="rounded=0;orthogonalLoop=1;jettySize=auto;html=1;exitX=1;exitY=0.5;exitDx=0;exitDy=0;entryX=0;entryY=0.5;entryDx=0;entryDy=0;fontFamily=Times New Roman;fontSize=11;" parent="khgx04jsNpT15c4Wu7S9-313" source="khgx04jsNpT15c4Wu7S9-40" target="khgx04jsNpT15c4Wu7S9-63" edge="1">
          <mxGeometry relative="1" as="geometry" />
        </mxCell>
        <mxCell id="khgx04jsNpT15c4Wu7S9-37" style="rounded=0;orthogonalLoop=1;jettySize=auto;html=1;exitX=1;exitY=0.5;exitDx=0;exitDy=0;entryX=0;entryY=0.5;entryDx=0;entryDy=0;fontFamily=Times New Roman;fontSize=11;" parent="khgx04jsNpT15c4Wu7S9-313" source="khgx04jsNpT15c4Wu7S9-40" target="khgx04jsNpT15c4Wu7S9-67" edge="1">
          <mxGeometry relative="1" as="geometry" />
        </mxCell>
        <mxCell id="khgx04jsNpT15c4Wu7S9-38" style="rounded=0;orthogonalLoop=1;jettySize=auto;html=1;exitX=1;exitY=0.5;exitDx=0;exitDy=0;entryX=0;entryY=0.5;entryDx=0;entryDy=0;fontFamily=Times New Roman;fontSize=11;" parent="khgx04jsNpT15c4Wu7S9-313" source="khgx04jsNpT15c4Wu7S9-40" target="khgx04jsNpT15c4Wu7S9-54" edge="1">
          <mxGeometry relative="1" as="geometry" />
        </mxCell>
        <mxCell id="khgx04jsNpT15c4Wu7S9-39" style="rounded=0;orthogonalLoop=1;jettySize=auto;html=1;exitX=1;exitY=0.5;exitDx=0;exitDy=0;entryX=0;entryY=0.5;entryDx=0;entryDy=0;fontFamily=Times New Roman;fontSize=11;" parent="khgx04jsNpT15c4Wu7S9-313" source="khgx04jsNpT15c4Wu7S9-40" target="khgx04jsNpT15c4Wu7S9-58" edge="1">
          <mxGeometry relative="1" as="geometry" />
        </mxCell>
        <mxCell id="khgx04jsNpT15c4Wu7S9-40" value="" style="ellipse;whiteSpace=wrap;html=1;aspect=fixed;fontSize=11;strokeWidth=1;flipV=1;flipH=1;fontFamily=Times New Roman;fillColor=#b0e3e6;strokeColor=#0e8088;container=0;" parent="khgx04jsNpT15c4Wu7S9-313" vertex="1">
          <mxGeometry x="64.561091236924" y="91.20005529635385" width="18.1385509639291" height="18.1385509639291" as="geometry" />
        </mxCell>
        <mxCell id="khgx04jsNpT15c4Wu7S9-41" style="rounded=0;orthogonalLoop=1;jettySize=auto;html=1;exitX=1;exitY=0.5;exitDx=0;exitDy=0;entryX=0;entryY=0.5;entryDx=0;entryDy=0;fontFamily=Times New Roman;fontSize=11;" parent="khgx04jsNpT15c4Wu7S9-313" source="khgx04jsNpT15c4Wu7S9-45" target="khgx04jsNpT15c4Wu7S9-63" edge="1">
          <mxGeometry relative="1" as="geometry" />
        </mxCell>
        <mxCell id="khgx04jsNpT15c4Wu7S9-42" style="rounded=0;orthogonalLoop=1;jettySize=auto;html=1;exitX=1;exitY=0.5;exitDx=0;exitDy=0;entryX=0;entryY=0.5;entryDx=0;entryDy=0;fontFamily=Times New Roman;fontSize=11;" parent="khgx04jsNpT15c4Wu7S9-313" source="khgx04jsNpT15c4Wu7S9-45" target="khgx04jsNpT15c4Wu7S9-67" edge="1">
          <mxGeometry relative="1" as="geometry" />
        </mxCell>
        <mxCell id="khgx04jsNpT15c4Wu7S9-43" style="rounded=0;orthogonalLoop=1;jettySize=auto;html=1;exitX=1;exitY=0.5;exitDx=0;exitDy=0;entryX=0;entryY=0.5;entryDx=0;entryDy=0;fontFamily=Times New Roman;fontSize=11;" parent="khgx04jsNpT15c4Wu7S9-313" source="khgx04jsNpT15c4Wu7S9-45" target="khgx04jsNpT15c4Wu7S9-54" edge="1">
          <mxGeometry relative="1" as="geometry" />
        </mxCell>
        <mxCell id="khgx04jsNpT15c4Wu7S9-44" style="rounded=0;orthogonalLoop=1;jettySize=auto;html=1;exitX=1;exitY=0.5;exitDx=0;exitDy=0;entryX=0;entryY=0.5;entryDx=0;entryDy=0;fontFamily=Times New Roman;fontSize=11;" parent="khgx04jsNpT15c4Wu7S9-313" source="khgx04jsNpT15c4Wu7S9-45" target="khgx04jsNpT15c4Wu7S9-58" edge="1">
          <mxGeometry relative="1" as="geometry" />
        </mxCell>
        <mxCell id="khgx04jsNpT15c4Wu7S9-45" value="" style="ellipse;whiteSpace=wrap;html=1;aspect=fixed;fontSize=11;strokeWidth=1;flipV=1;flipH=1;fontFamily=Times New Roman;fillColor=#b0e3e6;strokeColor=#0e8088;container=0;" parent="khgx04jsNpT15c4Wu7S9-313" vertex="1">
          <mxGeometry x="64.561091236924" y="45.600027648177026" width="18.1385509639291" height="18.1385509639291" as="geometry" />
        </mxCell>
        <mxCell id="khgx04jsNpT15c4Wu7S9-46" style="rounded=0;orthogonalLoop=1;jettySize=auto;html=1;exitX=1;exitY=0.5;exitDx=0;exitDy=0;entryX=0;entryY=0.5;entryDx=0;entryDy=0;fontFamily=Times New Roman;fontSize=11;" parent="khgx04jsNpT15c4Wu7S9-313" source="khgx04jsNpT15c4Wu7S9-50" target="khgx04jsNpT15c4Wu7S9-63" edge="1">
          <mxGeometry relative="1" as="geometry" />
        </mxCell>
        <mxCell id="khgx04jsNpT15c4Wu7S9-47" style="rounded=0;orthogonalLoop=1;jettySize=auto;html=1;exitX=1;exitY=0.5;exitDx=0;exitDy=0;entryX=0;entryY=0.5;entryDx=0;entryDy=0;fontFamily=Times New Roman;fontSize=11;" parent="khgx04jsNpT15c4Wu7S9-313" source="khgx04jsNpT15c4Wu7S9-50" target="khgx04jsNpT15c4Wu7S9-67" edge="1">
          <mxGeometry relative="1" as="geometry" />
        </mxCell>
        <mxCell id="khgx04jsNpT15c4Wu7S9-48" style="rounded=0;orthogonalLoop=1;jettySize=auto;html=1;exitX=1;exitY=0.5;exitDx=0;exitDy=0;entryX=0;entryY=0.5;entryDx=0;entryDy=0;fontFamily=Times New Roman;fontSize=11;" parent="khgx04jsNpT15c4Wu7S9-313" source="khgx04jsNpT15c4Wu7S9-50" edge="1">
          <mxGeometry relative="1" as="geometry">
            <mxPoint x="92.65333821499442" y="9.263319902243794" as="sourcePoint" />
            <mxPoint x="119.06005037441939" y="100.46337519859763" as="targetPoint" />
          </mxGeometry>
        </mxCell>
        <mxCell id="khgx04jsNpT15c4Wu7S9-49" style="rounded=0;orthogonalLoop=1;jettySize=auto;html=1;exitX=1;exitY=0.5;exitDx=0;exitDy=0;entryX=0;entryY=0.5;entryDx=0;entryDy=0;fontFamily=Times New Roman;fontSize=11;" parent="khgx04jsNpT15c4Wu7S9-313" source="khgx04jsNpT15c4Wu7S9-50" target="khgx04jsNpT15c4Wu7S9-58" edge="1">
          <mxGeometry relative="1" as="geometry" />
        </mxCell>
        <mxCell id="khgx04jsNpT15c4Wu7S9-50" value="" style="ellipse;whiteSpace=wrap;html=1;aspect=fixed;fontSize=11;strokeWidth=1;flipV=1;flipH=1;fontFamily=Times New Roman;fillColor=#b0e3e6;strokeColor=#0e8088;container=0;" parent="khgx04jsNpT15c4Wu7S9-313" vertex="1">
          <mxGeometry x="64.561091236924" width="18.1385509639291" height="18.1385509639291" as="geometry" />
        </mxCell>
        <mxCell id="khgx04jsNpT15c4Wu7S9-51" style="rounded=0;orthogonalLoop=1;jettySize=auto;html=1;exitX=1;exitY=0.5;exitDx=0;exitDy=0;entryX=0;entryY=0.5;entryDx=0;entryDy=0;fontFamily=Times New Roman;fontSize=11;" parent="khgx04jsNpT15c4Wu7S9-313" source="khgx04jsNpT15c4Wu7S9-54" target="khgx04jsNpT15c4Wu7S9-70" edge="1">
          <mxGeometry relative="1" as="geometry" />
        </mxCell>
        <mxCell id="khgx04jsNpT15c4Wu7S9-52" style="rounded=0;orthogonalLoop=1;jettySize=auto;html=1;exitX=1;exitY=0.5;exitDx=0;exitDy=0;entryX=0;entryY=0.5;entryDx=0;entryDy=0;fontFamily=Times New Roman;fontSize=11;" parent="khgx04jsNpT15c4Wu7S9-313" source="khgx04jsNpT15c4Wu7S9-54" target="khgx04jsNpT15c4Wu7S9-69" edge="1">
          <mxGeometry relative="1" as="geometry" />
        </mxCell>
        <mxCell id="khgx04jsNpT15c4Wu7S9-53" style="rounded=0;orthogonalLoop=1;jettySize=auto;html=1;exitX=1;exitY=0.5;exitDx=0;exitDy=0;entryX=0;entryY=0.5;entryDx=0;entryDy=0;fontFamily=Times New Roman;fontSize=11;" parent="khgx04jsNpT15c4Wu7S9-313" source="khgx04jsNpT15c4Wu7S9-54" target="khgx04jsNpT15c4Wu7S9-68" edge="1">
          <mxGeometry relative="1" as="geometry" />
        </mxCell>
        <mxCell id="khgx04jsNpT15c4Wu7S9-54" value="" style="ellipse;whiteSpace=wrap;html=1;aspect=fixed;fontSize=11;strokeWidth=1;flipV=1;flipH=1;fontFamily=Times New Roman;fillColor=#b0e3e6;strokeColor=#0e8088;container=0;" parent="khgx04jsNpT15c4Wu7S9-313" vertex="1">
          <mxGeometry x="119.06005037442237" y="91.20005529635385" width="18.1385509639291" height="18.1385509639291" as="geometry" />
        </mxCell>
        <mxCell id="khgx04jsNpT15c4Wu7S9-55" style="rounded=0;orthogonalLoop=1;jettySize=auto;html=1;exitX=1;exitY=0.5;exitDx=0;exitDy=0;entryX=0;entryY=0.5;entryDx=0;entryDy=0;fontFamily=Times New Roman;fontSize=11;" parent="khgx04jsNpT15c4Wu7S9-313" source="khgx04jsNpT15c4Wu7S9-58" target="khgx04jsNpT15c4Wu7S9-68" edge="1">
          <mxGeometry relative="1" as="geometry" />
        </mxCell>
        <mxCell id="khgx04jsNpT15c4Wu7S9-56" style="rounded=0;orthogonalLoop=1;jettySize=auto;html=1;exitX=1;exitY=0.5;exitDx=0;exitDy=0;entryX=0;entryY=0.5;entryDx=0;entryDy=0;fontFamily=Times New Roman;fontSize=11;" parent="khgx04jsNpT15c4Wu7S9-313" source="khgx04jsNpT15c4Wu7S9-58" target="khgx04jsNpT15c4Wu7S9-69" edge="1">
          <mxGeometry relative="1" as="geometry" />
        </mxCell>
        <mxCell id="khgx04jsNpT15c4Wu7S9-57" style="rounded=0;orthogonalLoop=1;jettySize=auto;html=1;exitX=1;exitY=0.5;exitDx=0;exitDy=0;entryX=0;entryY=0.5;entryDx=0;entryDy=0;fontFamily=Times New Roman;fontSize=11;" parent="khgx04jsNpT15c4Wu7S9-313" source="khgx04jsNpT15c4Wu7S9-58" target="khgx04jsNpT15c4Wu7S9-70" edge="1">
          <mxGeometry relative="1" as="geometry" />
        </mxCell>
        <mxCell id="khgx04jsNpT15c4Wu7S9-58" value="" style="ellipse;whiteSpace=wrap;html=1;aspect=fixed;fontSize=11;strokeWidth=1;flipV=1;flipH=1;fontFamily=Times New Roman;fillColor=#b0e3e6;strokeColor=#0e8088;container=0;" parent="khgx04jsNpT15c4Wu7S9-313" vertex="1">
          <mxGeometry x="119.06005037442237" y="136.79723294280282" width="18.1385509639291" height="18.1385509639291" as="geometry" />
        </mxCell>
        <mxCell id="khgx04jsNpT15c4Wu7S9-59" style="rounded=0;orthogonalLoop=1;jettySize=auto;html=1;exitX=1;exitY=0.5;exitDx=0;exitDy=0;entryX=0;entryY=0.5;entryDx=0;entryDy=0;fontFamily=Times New Roman;fontSize=11;" parent="khgx04jsNpT15c4Wu7S9-313" source="khgx04jsNpT15c4Wu7S9-63" target="khgx04jsNpT15c4Wu7S9-70" edge="1">
          <mxGeometry relative="1" as="geometry" />
        </mxCell>
        <mxCell id="khgx04jsNpT15c4Wu7S9-60" style="rounded=0;orthogonalLoop=1;jettySize=auto;html=1;exitX=1;exitY=0.5;exitDx=0;exitDy=0;entryX=0;entryY=0.5;entryDx=0;entryDy=0;fontFamily=Times New Roman;fontSize=11;" parent="khgx04jsNpT15c4Wu7S9-313" source="khgx04jsNpT15c4Wu7S9-63" target="khgx04jsNpT15c4Wu7S9-69" edge="1">
          <mxGeometry relative="1" as="geometry" />
        </mxCell>
        <mxCell id="khgx04jsNpT15c4Wu7S9-61" style="rounded=0;orthogonalLoop=1;jettySize=auto;html=1;exitX=1;exitY=0.5;exitDx=0;exitDy=0;entryX=0;entryY=0.5;entryDx=0;entryDy=0;fontFamily=Times New Roman;fontSize=11;" parent="khgx04jsNpT15c4Wu7S9-313" source="khgx04jsNpT15c4Wu7S9-63" target="khgx04jsNpT15c4Wu7S9-68" edge="1">
          <mxGeometry relative="1" as="geometry" />
        </mxCell>
        <mxCell id="khgx04jsNpT15c4Wu7S9-62" style="rounded=0;orthogonalLoop=1;jettySize=auto;html=1;exitX=1;exitY=0.5;exitDx=0;exitDy=0;entryX=0;entryY=0.5;entryDx=0;entryDy=0;fontFamily=Times New Roman;fontSize=11;" parent="khgx04jsNpT15c4Wu7S9-313" source="khgx04jsNpT15c4Wu7S9-63" target="khgx04jsNpT15c4Wu7S9-68" edge="1">
          <mxGeometry relative="1" as="geometry" />
        </mxCell>
        <mxCell id="khgx04jsNpT15c4Wu7S9-63" value="" style="ellipse;whiteSpace=wrap;html=1;aspect=fixed;fontSize=11;strokeWidth=1;flipV=1;flipH=1;fontFamily=Times New Roman;fillColor=#b0e3e6;strokeColor=#0e8088;container=0;" parent="khgx04jsNpT15c4Wu7S9-313" vertex="1">
          <mxGeometry x="119.06005037442237" width="18.1385509639291" height="18.1385509639291" as="geometry" />
        </mxCell>
        <mxCell id="khgx04jsNpT15c4Wu7S9-64" style="rounded=0;orthogonalLoop=1;jettySize=auto;html=1;exitX=1;exitY=0.5;exitDx=0;exitDy=0;entryX=0;entryY=0.5;entryDx=0;entryDy=0;fontFamily=Times New Roman;fontSize=11;" parent="khgx04jsNpT15c4Wu7S9-313" source="khgx04jsNpT15c4Wu7S9-67" target="khgx04jsNpT15c4Wu7S9-70" edge="1">
          <mxGeometry relative="1" as="geometry" />
        </mxCell>
        <mxCell id="khgx04jsNpT15c4Wu7S9-65" style="rounded=0;orthogonalLoop=1;jettySize=auto;html=1;exitX=1;exitY=0.5;exitDx=0;exitDy=0;entryX=0;entryY=0.5;entryDx=0;entryDy=0;fontFamily=Times New Roman;fontSize=11;" parent="khgx04jsNpT15c4Wu7S9-313" source="khgx04jsNpT15c4Wu7S9-67" target="khgx04jsNpT15c4Wu7S9-69" edge="1">
          <mxGeometry relative="1" as="geometry" />
        </mxCell>
        <mxCell id="khgx04jsNpT15c4Wu7S9-66" style="rounded=0;orthogonalLoop=1;jettySize=auto;html=1;exitX=1;exitY=0.5;exitDx=0;exitDy=0;entryX=0;entryY=0.5;entryDx=0;entryDy=0;fontFamily=Times New Roman;fontSize=11;" parent="khgx04jsNpT15c4Wu7S9-313" source="khgx04jsNpT15c4Wu7S9-67" target="khgx04jsNpT15c4Wu7S9-68" edge="1">
          <mxGeometry relative="1" as="geometry" />
        </mxCell>
        <mxCell id="khgx04jsNpT15c4Wu7S9-67" value="" style="ellipse;whiteSpace=wrap;html=1;aspect=fixed;fontSize=11;strokeWidth=1;flipV=1;flipH=1;fontFamily=Times New Roman;fillColor=#b0e3e6;strokeColor=#0e8088;container=0;" parent="khgx04jsNpT15c4Wu7S9-313" vertex="1">
          <mxGeometry x="119.06005037442237" y="45.600027648177026" width="18.1385509639291" height="18.1385509639291" as="geometry" />
        </mxCell>
        <mxCell id="khgx04jsNpT15c4Wu7S9-68" value="" style="ellipse;whiteSpace=wrap;html=1;aspect=fixed;fontSize=11;strokeWidth=1;fontFamily=Times New Roman;fillColor=#f8cecc;strokeColor=#b85450;container=0;" parent="khgx04jsNpT15c4Wu7S9-313" vertex="1">
          <mxGeometry x="177.49192408885355" y="117.66517134266458" width="18.1385509639291" height="18.1385509639291" as="geometry" />
        </mxCell>
        <mxCell id="khgx04jsNpT15c4Wu7S9-69" value="" style="ellipse;whiteSpace=wrap;html=1;aspect=fixed;fontSize=11;strokeWidth=1;fontFamily=Times New Roman;fillColor=#f8cecc;strokeColor=#b85450;container=0;" parent="khgx04jsNpT15c4Wu7S9-313" vertex="1">
          <mxGeometry x="177.49192408885355" y="72.06514369448756" width="18.1385509639291" height="18.1385509639291" as="geometry" />
        </mxCell>
        <mxCell id="khgx04jsNpT15c4Wu7S9-70" value="" style="ellipse;whiteSpace=wrap;html=1;aspect=fixed;fontSize=11;strokeWidth=1;fontFamily=Times New Roman;fillColor=#f8cecc;strokeColor=#b85450;container=0;" parent="khgx04jsNpT15c4Wu7S9-313" vertex="1">
          <mxGeometry x="177.49192408885355" y="26.465116046310726" width="18.1385509639291" height="18.1385509639291" as="geometry" />
        </mxCell>
        <mxCell id="khgx04jsNpT15c4Wu7S9-83" value="Output Layer" style="text;html=1;align=center;verticalAlign=middle;resizable=0;points=[];autosize=1;strokeColor=none;fillColor=none;fontFamily=Times New Roman;fontSize=11;container=0;" parent="khgx04jsNpT15c4Wu7S9-313" vertex="1">
          <mxGeometry x="124.34800808028623" y="160.3125972006221" width="80" height="30" as="geometry" />
        </mxCell>
        <mxCell id="khgx04jsNpT15c4Wu7S9-319" style="edgeStyle=orthogonalEdgeStyle;rounded=0;orthogonalLoop=1;jettySize=auto;html=1;exitX=1;exitY=0.5;exitDx=0;exitDy=0;entryX=0;entryY=0.5;entryDx=0;entryDy=0;" parent="1" source="khgx04jsNpT15c4Wu7S9-119" target="khgx04jsNpT15c4Wu7S9-157" edge="1">
          <mxGeometry relative="1" as="geometry">
            <Array as="points">
              <mxPoint x="600" y="1606" />
              <mxPoint x="600" y="1625" />
            </Array>
          </mxGeometry>
        </mxCell>
        <mxCell id="VwwPdVkdePOhtC4E7bin-1" value="State" style="text;html=1;align=center;verticalAlign=middle;resizable=0;points=[];autosize=1;strokeColor=none;fillColor=none;fontFamily=Times New Roman;" vertex="1" parent="1">
          <mxGeometry x="249.75" y="1686.25" width="50" height="30" as="geometry" />
        </mxCell>
        <mxCell id="VwwPdVkdePOhtC4E7bin-2" value="Action" style="text;html=1;align=center;verticalAlign=middle;resizable=0;points=[];autosize=1;strokeColor=none;fillColor=none;fontFamily=Times New Roman;" vertex="1" parent="1">
          <mxGeometry x="523" y="1685" width="60" height="30" as="geometry" />
        </mxCell>
      </root>
    </mxGraphModel>
  </diagram>
</mxfile>
